<mxfile host="app.diagrams.net" modified="2024-04-15T21:05:46.288Z" agent="Mozilla/5.0 (Windows NT 10.0; Win64; x64) AppleWebKit/537.36 (KHTML, like Gecko) Chrome/123.0.0.0 Safari/537.36" version="24.2.5" etag="t_MDxIdOll6K-47jYuat" type="github">
  <diagram name="PÃ¡gina-1" id="FmFgpZ5fOVPl88nW-mTe">
    <mxGraphModel>
      <root>
        <mxCell id="0" />
        <mxCell id="1" parent="0" />
      </root>
    </mxGraphModel>
  </diagram>
</mxfile>
